<?xml version="1.0" encoding="UTF-8"?>
<!DOCTYPE svg PUBLIC "-//W3C//DTD SVG 1.1//EN" "http://www.w3.org/Graphics/SVG/1.1/DTD/svg11.dtd">
<svg xmlns="http://www.w3.org/2000/svg" version="1.1" width="4096px" height="4096px" style="shape-rendering:geometricPrecision; text-rendering:geometricPrecision; image-rendering:optimizeQuality; fill-rule:evenodd; clip-rule:evenodd" xmlns:xlink="http://www.w3.org/1999/xlink">
<g><path style="opacity:1" fill="#f9f9f9" d="M -0.5,-0.5 C 1364.83,-0.5 2730.17,-0.5 4095.5,-0.5C 4095.5,1364.83 4095.5,2730.17 4095.5,4095.5C 2730.17,4095.5 1364.83,4095.5 -0.5,4095.5C -0.5,2730.17 -0.5,1364.83 -0.5,-0.5 Z"/></g>
<g><path style="opacity:1" fill="#d9dcdf" d="M 2987.5,655.5 C 2382.5,655.5 1777.5,655.5 1172.5,655.5C 1774.69,654.833 2377.02,654.166 2979.5,653.5C 2982.35,653.964 2985.02,654.631 2987.5,655.5 Z"/></g>
<g><path style="opacity:1" fill="#080808" d="M 1172.5,655.5 C 1777.5,655.5 2382.5,655.5 2987.5,655.5C 2988.5,655.414 2989.33,655.748 2990,656.5C 2990.67,1209.5 2990.67,1762.5 2990,2315.5C 2952.33,2316.17 2914.67,2316.83 2877,2317.5C 2872.93,2343.71 2870.26,2370.04 2869,2396.5C 2873.3,2403.94 2874.64,2411.94 2873,2420.5C 2869.85,2423.65 2867.51,2427.32 2866,2431.5C 2865.67,2436.17 2865.33,2440.83 2865,2445.5C 2863.35,2519.83 2862.02,2594.16 2861,2668.5C 2858.69,2692.74 2851.03,2715.08 2838,2735.5C 2829.21,2746.63 2820.04,2757.46 2810.5,2768C 2803.14,2774.8 2794.47,2779.13 2784.5,2781C 2758.17,2781.33 2731.83,2781.67 2705.5,2782C 2702.65,2792.2 2698.82,2802.03 2694,2811.5C 2689.16,2818.34 2682.66,2822.84 2674.5,2825C 2640.83,2825.33 2607.17,2825.67 2573.5,2826C 2572.5,2876.09 2572.17,2926.26 2572.5,2976.5C 2577.51,2976.33 2582.51,2976.5 2587.5,2977C 2588.19,2978.07 2588.69,2979.23 2589,2980.5C 2589.33,3037.17 2589.67,3093.83 2590,3150.5C 2682.32,3187.58 2774.49,3225.08 2866.5,3263C 2874.54,3265.76 2881.7,3269.93 2888,3275.5C 2888.67,3277.5 2889.33,3279.5 2890,3281.5C 2890.33,3290.17 2890.67,3298.83 2891,3307.5C 2904.53,3314.7 2914.2,3325.36 2920,3339.5C 2923.21,3356.7 2918.71,3371.37 2906.5,3383.5C 2905.52,3383.81 2904.86,3384.48 2904.5,3385.5C 2948.16,3386.5 2991.83,3386.83 3035.5,3386.5C 3099.66,3387.5 3164,3387.83 3228.5,3387.5C 3228.5,3389.83 3228.5,3392.17 3228.5,3394.5C 3160.66,3394.17 3093,3394.5 3025.5,3395.5C 2304.83,3395.83 1584.17,3395.5 863.5,3394.5C 862.212,3391.97 862.212,3389.47 863.5,3387C 926.166,3386.5 988.832,3386.33 1051.5,3386.5C 1077.4,3268.23 1104.24,3150.23 1132,3032.5C 1166.17,2881.48 1200.17,2730.48 1234,2579.5C 1239.79,2554.79 1245.79,2530.12 1252,2505.5C 1255.15,2492.26 1257.65,2478.92 1259.5,2465.5C 1186.83,2465.67 1114.17,2465.5 1041.5,2465C 1040.18,2453.73 1039.51,2442.23 1039.5,2430.5C 1039.51,2418.93 1039.84,2407.43 1040.5,2396C 1064.78,2394.54 1089.11,2394.04 1113.5,2394.5C 1106.71,2340.29 1101.05,2285.95 1096.5,2231.5C 1104.49,2230.9 1112.49,2230.57 1120.5,2230.5C 1115.92,2202.02 1110.59,2173.69 1104.5,2145.5C 1104.55,2143.08 1105.55,2141.24 1107.5,2140C 1111.28,2138.63 1115.11,2137.46 1119,2136.5C 1124.52,2136.58 1127.85,2139.24 1129,2144.5C 1135.74,2172.71 1141.91,2201.04 1147.5,2229.5C 1153.17,2229.5 1158.83,2229.5 1164.5,2229.5C 1165.33,1706.51 1165.83,1183.51 1166,660.5C 1166,656.118 1168.17,654.451 1172.5,655.5 Z"/></g>
<g><path style="opacity:1" fill="#f8f8f8" d="M 1241.5,2251.5 C 1267.83,2252.17 1294.17,2252.83 1320.5,2253.5C 1314.64,2271.09 1308.97,2288.76 1303.5,2306.5C 1277.83,2306.5 1252.17,2306.5 1226.5,2306.5C 1228.14,2286.82 1229.98,2267.15 1232,2247.5C 1232.67,2242.17 1232.67,2236.83 1232,2231.5C 1226.93,2230.53 1221.76,2230.2 1216.5,2230.5C 1219.35,2216.44 1222.52,2202.44 1226,2188.5C 1228.4,2173.56 1222.23,2167.4 1207.5,2170C 1205.04,2172.41 1203.21,2175.24 1202,2178.5C 1200.27,2187.65 1198.11,2196.65 1195.5,2205.5C 1194.6,2204.79 1194.26,2203.79 1194.5,2202.5C 1197.26,2183.93 1198.43,2165.26 1198,2146.5C 1192.67,2144.6 1187.17,2144.1 1181.5,2145C 1180.67,2145.83 1179.83,2146.67 1179,2147.5C 1177.83,2155.88 1176.66,2164.21 1175.5,2172.5C 1174.5,2154.01 1174.17,2135.34 1174.5,2116.5C 1174.5,1980.17 1174.5,1843.83 1174.5,1707.5C 1175.53,1706.09 1176.2,1704.42 1176.5,1702.5C 1175.28,1358 1175.28,1013.16 1176.5,668C 1176.33,667.167 1176.17,666.333 1176,665.5C 1175.72,666.416 1175.22,667.082 1174.5,667.5C 1174.5,666.5 1174.5,665.5 1174.5,664.5C 1776.83,664.5 2379.17,664.5 2981.5,664.5C 2981.5,1211.83 2981.5,1759.17 2981.5,2306.5C 2947.5,2306.5 2913.5,2306.5 2879.5,2306.5C 2881.3,2288.38 2883.8,2270.38 2887,2252.5C 2897.67,2251.83 2908.33,2251.17 2919,2250.5C 2919.58,2200.32 2919.08,2150.15 2917.5,2100C 2921.84,2074.47 2927.67,2049.31 2935,2024.5C 2936.82,2015.22 2938.32,2005.88 2939.5,1996.5C 2939.08,1987.22 2936.58,1978.55 2932,1970.5C 2928,1965.17 2924,1959.83 2920,1954.5C 2919.5,1542.83 2919.33,1131.17 2919.5,719.5C 2643.5,719.5 2367.5,719.5 2091.5,719.5C 2091.5,1227.5 2091.5,1735.5 2091.5,2243.5C 2056.67,2251.53 2022.01,2260.2 1987.5,2269.5C 1918.62,2244.58 1857.29,2256.74 1803.5,2306C 1653.17,2306.5 1502.83,2306.67 1352.5,2306.5C 1356.38,2288.65 1361.05,2270.98 1366.5,2253.5C 1410.5,2252.45 1454.5,2251.95 1498.5,2252C 1509.41,2264.91 1521.07,2277.24 1533.5,2289C 1548.73,2289.05 1563.73,2287.22 1578.5,2283.5C 1577.61,2272.92 1575.61,2262.59 1572.5,2252.5C 1721.49,2251.68 1870.49,2251.18 2019.5,2251C 2027.85,2250.62 2036.18,2250.12 2044.5,2249.5C 2044.5,1739.5 2044.5,1229.5 2044.5,719.5C 1775.17,719.5 1505.83,719.5 1236.5,719.5C 1236.33,1229.5 1236.5,1739.5 1237,2249.5C 1238.05,2251.11 1239.55,2251.77 1241.5,2251.5 Z"/></g>
<g><path style="opacity:1" fill="#f9f9f9" d="M 1244.5,728.5 C 1508.5,728.5 1772.5,728.5 2036.5,728.5C 2036.67,1232.83 2036.5,1737.17 2036,2241.5C 1880.57,2242.5 1725.07,2242.83 1569.5,2242.5C 1524.56,2051.06 1480.39,1859.4 1437,1667.5C 1435.67,1662.83 1434.33,1658.17 1433,1653.5C 1430.93,1652.87 1428.76,1652.53 1426.5,1652.5C 1415.43,1653.88 1404.43,1655.71 1393.5,1658C 1392.07,1658.47 1390.9,1659.3 1390,1660.5C 1384.11,1678.05 1380.11,1696.05 1378,1714.5C 1374.34,1744.07 1373.01,1773.73 1374,1803.5C 1375.3,1850.91 1380.3,1897.91 1389,1944.5C 1393.5,1964.14 1397.5,1983.8 1401,2003.5C 1375.28,2082.67 1349.94,2162.01 1325,2241.5C 1298.33,2242.83 1271.67,2242.83 1245,2241.5C 1244.5,1737.17 1244.33,1232.83 1244.5,728.5 Z"/></g>
<g><path style="opacity:1" fill="#f9f9f9" d="M 2910.5,728.5 C 2911.17,1135.83 2910.5,1542.83 2908.5,1949.5C 2882.18,1939.86 2859.02,1944.86 2839,1964.5C 2829.66,1977.17 2823,1991.17 2819,2006.5C 2811.96,2033.74 2805.46,2061.08 2799.5,2088.5C 2794.14,2014.18 2769.98,1946.84 2727,1886.5C 2711.29,1868.45 2693.45,1852.95 2673.5,1840C 2657.33,1831.91 2641,1824.41 2624.5,1817.5C 2616.82,1797.79 2610.15,1777.79 2604.5,1757.5C 2607.65,1757.34 2610.15,1756.01 2612,1753.5C 2615.26,1740.38 2618.93,1727.38 2623,1714.5C 2634.54,1687.55 2642.21,1659.55 2646,1630.5C 2646.6,1620.15 2646.43,1609.82 2645.5,1599.5C 2646.82,1599.33 2647.99,1599.66 2649,1600.5C 2651.26,1605.75 2654.59,1610.08 2659,1613.5C 2660.65,1613.18 2661.65,1612.18 2662,1610.5C 2660.35,1573.37 2643.85,1544.87 2612.5,1525C 2607.61,1523.05 2602.94,1520.88 2598.5,1518.5C 2612.92,1514.57 2626.59,1516.24 2639.5,1523.5C 2642.66,1523.18 2643.82,1521.52 2643,1518.5C 2636.45,1512.14 2628.61,1508.31 2619.5,1507C 2613.83,1506.33 2608.17,1506.33 2602.5,1507C 2596.86,1508.36 2591.19,1509.53 2585.5,1510.5C 2584.34,1492.34 2577.34,1476.84 2564.5,1464C 2560.6,1461.6 2557.27,1462.1 2554.5,1465.5C 2559.58,1471.08 2564.08,1477.08 2568,1483.5C 2570.74,1488.89 2572.57,1494.56 2573.5,1500.5C 2572.13,1500.66 2570.79,1500.49 2569.5,1500C 2563.85,1494.02 2557.85,1488.36 2551.5,1483C 2524.2,1465.78 2494.53,1459.28 2462.5,1463.5C 2462.26,1465.47 2462.59,1467.3 2463.5,1469C 2469.43,1470.31 2474.76,1472.81 2479.5,1476.5C 2479,1476.83 2478.5,1477.17 2478,1477.5C 2474.54,1476.45 2471.04,1476.28 2467.5,1477C 2446.78,1482.46 2426.12,1488.13 2405.5,1494C 2396.17,1494.67 2386.83,1494.67 2377.5,1494C 2369.96,1491.72 2362.29,1490.38 2354.5,1490C 2353.11,1490.96 2352.44,1492.29 2352.5,1494C 2353.93,1499.76 2357.26,1504.1 2362.5,1507C 2366.77,1509.32 2371.1,1511.48 2375.5,1513.5C 2351.46,1521.94 2332.63,1536.94 2319,1558.5C 2315.55,1564.86 2312.88,1571.53 2311,1578.5C 2305.41,1583.7 2299.58,1588.53 2293.5,1593C 2293.82,1594.65 2294.82,1595.65 2296.5,1596C 2302.93,1596.75 2308.93,1595.42 2314.5,1592C 2319.83,1588.67 2325.17,1585.33 2330.5,1582C 2331.94,1581.22 2333.28,1581.39 2334.5,1582.5C 2324.63,1595.6 2319.63,1610.43 2319.5,1627C 2319.22,1637.61 2321.72,1647.44 2327,1656.5C 2329.43,1659.86 2332.1,1660.19 2335,1657.5C 2336.61,1651.89 2337.94,1646.23 2339,1640.5C 2339.42,1639.04 2340.26,1638.54 2341.5,1639C 2345.78,1648.4 2349.95,1657.9 2354,1667.5C 2357.28,1669.14 2360.78,1669.8 2364.5,1669.5C 2364.5,1670.5 2364.5,1671.5 2364.5,1672.5C 2350.1,1674.57 2342.77,1682.9 2342.5,1697.5C 2342.66,1712.31 2347.66,1725.15 2357.5,1736C 2361.97,1740.23 2367.31,1742.23 2373.5,1742C 2380.44,1766.49 2389.94,1789.99 2402,1812.5C 2422.74,1844.56 2450.24,1851.73 2484.5,1834C 2485.94,1833.22 2487.28,1833.39 2488.5,1834.5C 2493.56,1846.81 2496.56,1859.48 2497.5,1872.5C 2475.14,1887.36 2456.64,1906.02 2442,1928.5C 2430.56,1947.05 2419.89,1966.05 2410,1985.5C 2380.3,2029.54 2351.8,2074.37 2324.5,2120C 2326.14,2122.43 2327.3,2124.93 2328,2127.5C 2310.33,2154.5 2292.67,2181.5 2275,2208.5C 2272.87,2211.63 2270.37,2214.46 2267.5,2217C 2211.63,2221.59 2156.29,2229.76 2101.5,2241.5C 2100.5,1737.17 2100.17,1232.83 2100.5,728.5C 2370.5,728.5 2640.5,728.5 2910.5,728.5 Z"/></g>
<g><path style="opacity:1" fill="#0c0c0c" d="M 2807.5,889.5 C 2811.05,890.957 2812.22,893.623 2811,897.5C 2741,967.163 2670.67,1036.5 2600,1105.5C 2597.55,1103.27 2596.22,1100.6 2596,1097.5C 2666.83,1028.16 2737.33,958.83 2807.5,889.5 Z"/></g>
<g><path style="opacity:1" fill="#0c0b0c" d="M 2450.5,1063.5 C 2439.71,1074.19 2429.04,1084.86 2418.5,1095.5C 2348.62,1162.88 2279.62,1231.04 2211.5,1300C 2206.74,1300.9 2204.24,1299.06 2204,1294.5C 2324.61,1174.55 2445.78,1055.39 2567.5,937C 2572.69,932.312 2578.02,927.812 2583.5,923.5C 2586.01,925.218 2586.85,927.551 2586,930.5C 2540.91,975.09 2495.74,1019.42 2450.5,1063.5 Z"/></g>
<g><path style="opacity:1" fill="#050005" d="M 1240.5,927.5 C 1241.33,941.994 1241.83,956.661 1242,971.5C 1242.33,965.833 1242.67,960.167 1243,954.5C 1243.17,1017.17 1243.33,1079.83 1243.5,1142.5C 1243.41,1416.14 1243.24,1690.14 1243,1964.5C 1242.67,1800.5 1242.33,1636.5 1242,1472.5C 1240.84,1448.92 1240.34,1425.25 1240.5,1401.5C 1240.85,1336.96 1240.85,1272.62 1240.5,1208.5C 1241.14,1204.3 1241.8,1200.13 1242.5,1196C 1241.8,1191.87 1241.14,1187.7 1240.5,1183.5C 1240.85,1097.75 1240.85,1012.41 1240.5,927.5 Z"/></g>
<g><path style="opacity:1" fill="#0d0c0c" d="M 1842.5,1039.5 C 1846.49,1039.71 1848.32,1041.71 1848,1045.5C 1777.72,1116.78 1706.56,1186.95 1634.5,1256C 1603.64,1287.53 1572.3,1318.86 1540.5,1350C 1536.53,1352.96 1532.87,1356.3 1529.5,1360C 1525.7,1362.03 1522.53,1361.2 1520,1357.5C 1519.38,1356.55 1519.55,1355.72 1520.5,1355C 1628.36,1250.3 1735.7,1145.13 1842.5,1039.5 Z"/></g>
<g><path style="opacity:1" fill="#0b0b0b" d="M 1719.5,1062.5 C 1723.19,1062.19 1725.53,1063.85 1726.5,1067.5C 1671.63,1121.21 1616.96,1175.04 1562.5,1229C 1554.83,1236 1547.17,1243 1539.5,1250C 1534.5,1253.89 1531.67,1252.72 1531,1246.5C 1593.94,1184.72 1656.78,1123.38 1719.5,1062.5 Z"/></g>
<g><path style="opacity:1" fill="#d7d7d8" d="M 2450.5,1063.5 C 2451.79,1064.47 2451.79,1065.47 2450.5,1066.5C 2440.75,1075.75 2431.08,1085.25 2421.5,1095C 2420.55,1095.48 2419.55,1095.65 2418.5,1095.5C 2429.04,1084.86 2439.71,1074.19 2450.5,1063.5 Z"/></g>
<g><path style="opacity:1" fill="#0c0b0c" d="M 2567.5,1125.5 C 2573.02,1127.58 2573.85,1130.91 2570,1135.5C 2463.06,1242.11 2355.89,1348.28 2248.5,1454C 2246.25,1453.8 2244.42,1452.64 2243,1450.5C 2242.22,1449.06 2242.39,1447.72 2243.5,1446.5C 2351.36,1339.64 2459.36,1232.64 2567.5,1125.5 Z"/></g>
<g><path style="opacity:1" fill="#0d0c0d" d="M 1495.5,1282.5 C 1498.12,1282.48 1499.45,1283.81 1499.5,1286.5C 1498.64,1289.53 1497.14,1292.19 1495,1294.5C 1457.11,1333.06 1418.61,1370.89 1379.5,1408C 1375.7,1408.2 1373.86,1406.36 1374,1402.5C 1414.09,1361.91 1454.59,1321.91 1495.5,1282.5 Z"/></g>
<g><path style="opacity:1" fill="#e6e6e8" d="M 1174.5,1707.5 C 1174.5,1360.83 1174.5,1014.17 1174.5,667.5C 1175.22,667.082 1175.72,666.416 1176,665.5C 1176.17,666.333 1176.33,667.167 1176.5,668C 1175.28,1013.16 1175.28,1358 1176.5,1702.5C 1176.2,1704.42 1175.53,1706.09 1174.5,1707.5 Z"/></g>
<g><path style="opacity:1" fill="#2b2b2d" d="M 2910.5,728.5 C 2911.5,1135.67 2911.83,1543 2911.5,1950.5C 2910.21,1950.74 2909.21,1950.4 2908.5,1949.5C 2910.5,1542.83 2911.17,1135.83 2910.5,728.5 Z"/></g>
<g><path style="opacity:1" fill="#0c0b0c" d="M 1541.5,1561.5 C 1544.21,1561.85 1546.21,1563.18 1547.5,1565.5C 1531.29,1592.88 1513.29,1619.05 1493.5,1644C 1489,1644.83 1487.17,1643 1488,1638.5C 1505.66,1612.68 1523.5,1587.01 1541.5,1561.5 Z"/></g>
<g><path style="opacity:1" fill="#f6f6f5" d="M 2458.5,1600.5 C 2459.56,1604.37 2459.39,1608.37 2458,1612.5C 2455.3,1619.39 2452.47,1626.22 2449.5,1633C 2450.8,1636.11 2453.13,1637.11 2456.5,1636C 2470,1627.83 2480.83,1617 2489,1603.5C 2489.12,1626.74 2498.12,1645.74 2516,1660.5C 2516.48,1661.45 2516.65,1662.45 2516.5,1663.5C 2496.43,1667.48 2476.59,1672.48 2457,1678.5C 2452.87,1675.71 2449.37,1672.21 2446.5,1668C 2425.94,1654.43 2410.11,1658.6 2399,1680.5C 2398.08,1685.48 2397.24,1690.48 2396.5,1695.5C 2391.7,1690.1 2385.7,1686.77 2378.5,1685.5C 2376.35,1681.36 2374.35,1677.19 2372.5,1673C 2373.31,1670.06 2375.31,1668.23 2378.5,1667.5C 2381.04,1665.61 2381.04,1663.77 2378.5,1662C 2368.85,1660.57 2365.68,1655.07 2369,1645.5C 2377.38,1635.45 2385.38,1625.12 2393,1614.5C 2394.33,1613.17 2395.67,1611.83 2397,1610.5C 2397.17,1611.33 2397.33,1612.17 2397.5,1613C 2394.45,1622.81 2390.62,1632.31 2386,1641.5C 2384.91,1644.62 2385.75,1646.96 2388.5,1648.5C 2417.05,1639.92 2440.39,1623.92 2458.5,1600.5 Z"/></g>
<g><path style="opacity:1" fill="#080707" d="M 2415.5,1645.5 C 2424.51,1645.33 2433.51,1645.5 2442.5,1646C 2445.26,1646.53 2447.93,1647.37 2450.5,1648.5C 2452.09,1650.17 2452.75,1652.17 2452.5,1654.5C 2441.83,1654.33 2431.16,1654.5 2420.5,1655C 2414.34,1657.26 2408,1657.93 2401.5,1657C 2398.97,1655.08 2398.97,1653.08 2401.5,1651C 2406.05,1648.55 2410.71,1646.71 2415.5,1645.5 Z"/></g>
<g><path style="opacity:1" fill="#f8f8f8" d="M 2563.5,1648.5 C 2576.82,1647.98 2584.65,1654.31 2587,1667.5C 2588.89,1681.6 2585.89,1694.6 2578,1706.5C 2575.41,1709.76 2572.24,1712.26 2568.5,1714C 2562.5,1714.33 2556.5,1714.67 2550.5,1715C 2548.81,1718.53 2549.48,1721.53 2552.5,1724C 2557.17,1724 2561.83,1724 2566.5,1724C 2571.98,1739.14 2581.48,1750.97 2595,1759.5C 2602.24,1782.23 2610.08,1804.73 2618.5,1827C 2616.99,1830.53 2614.65,1833.53 2611.5,1836C 2582.98,1861.07 2549.65,1874.4 2511.5,1876C 2510.3,1875.1 2509.47,1873.93 2509,1872.5C 2507.97,1866.06 2506.47,1859.72 2504.5,1853.5C 2522.45,1832.96 2535.78,1809.63 2544.5,1783.5C 2544.39,1782.56 2544.06,1781.72 2543.5,1781C 2541.83,1780.33 2540.17,1780.33 2538.5,1781C 2518.71,1807.79 2492.71,1825.46 2460.5,1834C 2442.88,1837.35 2428.38,1832.18 2417,1818.5C 2403.4,1799.68 2394.07,1779.01 2389,1756.5C 2393.98,1760.05 2399.48,1761.22 2405.5,1760C 2408.36,1758.21 2409.03,1755.88 2407.5,1753C 2400.37,1753.4 2394.21,1751.24 2389,1746.5C 2388.5,1738.81 2390,1731.47 2393.5,1724.5C 2392.39,1723.39 2391.72,1722.06 2391.5,1720.5C 2393.88,1713.69 2394.88,1706.69 2394.5,1699.5C 2395.5,1699.5 2396.5,1699.5 2397.5,1699.5C 2399.62,1710.05 2403.96,1719.55 2410.5,1728C 2423.59,1737.9 2437.26,1738.9 2451.5,1731C 2458.87,1723.4 2462.2,1714.23 2461.5,1703.5C 2461.86,1698.22 2460.86,1693.22 2458.5,1688.5C 2458.83,1687.83 2459.17,1687.17 2459.5,1686.5C 2479.35,1681.44 2499.02,1675.77 2518.5,1669.5C 2519.09,1669.71 2519.59,1670.04 2520,1670.5C 2520.23,1677.37 2522.07,1683.71 2525.5,1689.5C 2531.29,1691.47 2536.29,1690.31 2540.5,1686C 2543.35,1672.64 2549.35,1660.97 2558.5,1651C 2560.31,1650.24 2561.98,1649.41 2563.5,1648.5 Z"/></g>
<g><path style="opacity:1" fill="#0e0e0e" d="M 2566.5,1660.5 C 2570.2,1659.68 2572.53,1661.01 2573.5,1664.5C 2570.11,1668.4 2567.28,1672.74 2565,1677.5C 2564.09,1682.85 2563.09,1688.19 2562,1693.5C 2559.87,1697.38 2557.54,1697.38 2555,1693.5C 2554.33,1691.17 2554.33,1688.83 2555,1686.5C 2555.33,1676.18 2559.16,1667.52 2566.5,1660.5 Z"/></g>
<g><path style="opacity:1" fill="#f6f6f6" d="M 1420.5,1661.5 C 1422.47,1661.26 1424.3,1661.59 1426,1662.5C 1453.56,1779.29 1480.22,1896.29 1506,2013.5C 1526.89,2100.24 1547.39,2187.07 1567.5,2274C 1566.57,2276.76 1564.57,2278.09 1561.5,2278C 1556.17,2278.88 1550.84,2279.71 1545.5,2280.5C 1544.23,2280.43 1543.06,2280.1 1542,2279.5C 1541.53,2277.75 1540.86,2276.09 1540,2274.5C 1491.81,2071.9 1445.31,1869.07 1400.5,1666C 1407.37,1664.75 1414.03,1663.25 1420.5,1661.5 Z"/></g>
<g><path style="opacity:1" fill="#f5f5f5" d="M 2417.5,1669.5 C 2433.64,1666.82 2444.48,1673.15 2450,1688.5C 2455.21,1700.25 2454.54,1711.58 2448,1722.5C 2436.91,1730.8 2426.25,1730.13 2416,1720.5C 2408.14,1710.56 2404.81,1699.22 2406,1686.5C 2407.37,1679.08 2411.2,1673.41 2417.5,1669.5 Z"/></g>
<g><path style="opacity:1" fill="#f5f5f5" d="M 2359.5,1680.5 C 2361.14,1680.29 2362.64,1680.62 2364,1681.5C 2368.8,1689.48 2370.8,1698.15 2370,1707.5C 2373.13,1715.87 2374.3,1724.54 2373.5,1733.5C 2362.89,1730.39 2356.06,1723.39 2353,1712.5C 2351.69,1704.87 2351.36,1697.2 2352,1689.5C 2354.05,1686.02 2356.55,1683.02 2359.5,1680.5 Z"/></g>
<g><path style="opacity:1" fill="#f7f7f7" d="M 1392.5,1684.5 C 1394.61,1685.36 1395.78,1687.03 1396,1689.5C 1439.84,1882.88 1484.01,2076.21 1528.5,2269.5C 1528.17,2270.17 1527.83,2270.83 1527.5,2271.5C 1515.02,2257.85 1503.86,2243.19 1494,2227.5C 1470.47,2188.75 1451.47,2147.75 1437,2104.5C 1416.27,2032.89 1400.27,1960.23 1389,1886.5C 1381.15,1828.91 1380.48,1771.25 1387,1713.5C 1388.36,1703.72 1390.19,1694.06 1392.5,1684.5 Z"/></g>
<g><path style="opacity:1" fill="#0c0c0c" d="M 1564.5,1686.5 C 1567.13,1686.29 1568.79,1687.46 1569.5,1690C 1567.89,1692.62 1565.89,1694.95 1563.5,1697C 1556.01,1703.24 1548.35,1709.24 1540.5,1715C 1534.9,1717.86 1532.57,1716.36 1533.5,1710.5C 1543.3,1701.68 1553.64,1693.68 1564.5,1686.5 Z"/></g>
<g><path style="opacity:1" fill="#0c0c0b" d="M 2420.5,1686.5 C 2424.14,1686.74 2426.97,1688.4 2429,1691.5C 2429.32,1696.75 2430.16,1701.92 2431.5,1707C 2430.79,1711.05 2428.46,1712.72 2424.5,1712C 2420.09,1707 2417.42,1701.17 2416.5,1694.5C 2417.32,1691.53 2418.65,1688.87 2420.5,1686.5 Z"/></g>
<g><path style="opacity:1" fill="#e2e1e2" d="M 2382.5,1718.5 C 2382.17,1718.5 2381.83,1718.5 2381.5,1718.5C 2380.12,1716.04 2379.12,1713.37 2378.5,1710.5C 2378.72,1708.94 2379.39,1707.61 2380.5,1706.5C 2377.52,1703.81 2376.86,1700.64 2378.5,1697C 2380.83,1696.33 2383.17,1696.33 2385.5,1697C 2386.59,1704.42 2385.59,1711.59 2382.5,1718.5 Z"/></g>
<g><path style="opacity:1" fill="#676569" d="M 2381.5,1718.5 C 2381.83,1718.5 2382.17,1718.5 2382.5,1718.5C 2382.66,1720.53 2382.5,1722.53 2382,1724.5C 2380.2,1722.63 2380.03,1720.63 2381.5,1718.5 Z"/></g>
<g><path style="opacity:1" fill="#0a0909" d="M 1670.5,1768.5 C 1676.11,1767.08 1678.28,1769.08 1677,1774.5C 1649.99,1784.61 1623.16,1795.11 1596.5,1806C 1585.03,1810.21 1573.36,1813.71 1561.5,1816.5C 1559.28,1812 1560.61,1809.17 1565.5,1808C 1600.37,1794.22 1635.37,1781.06 1670.5,1768.5 Z"/></g>
<g><path style="opacity:1" fill="#090a09" d="M 2448.5,1770.5 C 2453.68,1769.51 2455.51,1771.51 2454,1776.5C 2441.77,1789.79 2426.77,1795.12 2409,1792.5C 2408.28,1790.89 2408.45,1789.39 2409.5,1788C 2420.06,1786.81 2430.06,1783.81 2439.5,1779C 2442.4,1775.93 2445.4,1773.1 2448.5,1770.5 Z"/></g>
<g><path style="opacity:1" fill="#f9f9f9" d="M 2689.5,2389.5 C 2644.83,2388.83 2600.17,2388.17 2555.5,2387.5C 2595.4,2342.72 2628.9,2293.39 2656,2239.5C 2657.79,2235.67 2658.96,2231.67 2659.5,2227.5C 2661.67,2227.68 2663.67,2228.35 2665.5,2229.5C 2673.37,2216.78 2680.53,2203.44 2687,2189.5C 2703.96,2153.07 2719.13,2115.91 2732.5,2078C 2731.59,2075.87 2729.92,2074.7 2727.5,2074.5C 2725.57,2074.59 2724.41,2075.59 2724,2077.5C 2706.46,2124.91 2686.46,2171.24 2664,2216.5C 2663.22,2218.21 2661.89,2219.21 2660,2219.5C 2594.76,2190.3 2529.93,2160.13 2465.5,2129C 2463,2127.33 2460.67,2125.49 2458.5,2123.5C 2474.54,2093.42 2490.04,2063.08 2505,2032.5C 2514.67,2015.17 2524.33,1997.83 2534,1980.5C 2535.5,1977.54 2535.66,1974.54 2534.5,1971.5C 2533.55,1971.01 2532.55,1970.68 2531.5,1970.5C 2528.12,1972.72 2525.62,1975.72 2524,1979.5C 2497.07,2027.36 2471.74,2076.03 2448,2125.5C 2447.33,2126.5 2447.33,2127.5 2448,2128.5C 2450.63,2129.76 2451.63,2131.76 2451,2134.5C 2428.83,2176 2406.67,2217.5 2384.5,2259C 2377.81,2259.61 2371.14,2259.44 2364.5,2258.5C 2371.19,2214.18 2378.02,2169.85 2385,2125.5C 2393.34,2074.78 2406.68,2025.45 2425,1977.5C 2441.69,1940.16 2465.86,1908.66 2497.5,1883C 2501.16,1882.16 2504.49,1882.83 2507.5,1885C 2544.34,1884.05 2577.34,1872.39 2606.5,1850C 2612.91,1844.71 2619.41,1839.55 2626,1834.5C 2626.5,1832.53 2626.66,1830.53 2626.5,1828.5C 2674.26,1843.95 2710.76,1873.28 2736,1916.5C 2756.76,1950.36 2771.76,1986.7 2781,2025.5C 2788.1,2056.13 2792.1,2087.13 2793,2118.5C 2776.92,2193.11 2765.26,2268.44 2758,2344.5C 2757.03,2359.49 2756.53,2374.49 2756.5,2389.5C 2734.17,2389.5 2711.83,2389.5 2689.5,2389.5 Z"/></g>
<g><path style="opacity:1" fill="#0c0b0b" d="M 1821.5,1862.5 C 1826.07,1862.08 1827.57,1864.08 1826,1868.5C 1825.09,1869.33 1824.42,1870.33 1824,1871.5C 1771.53,1922.3 1719.36,1973.47 1667.5,2025C 1665.21,2026.29 1663.21,2027.96 1661.5,2030C 1660.5,2030.67 1659.5,2030.67 1658.5,2030C 1656.59,2028.14 1655.76,2025.98 1656,2023.5C 1711.19,1969.47 1766.36,1915.81 1821.5,1862.5 Z"/></g>
<g><path style="opacity:1" fill="#0b0b0b" d="M 2611.5,1865.5 C 2616.49,1865.3 2618.15,1867.47 2616.5,1872C 2578.45,1900.67 2535.95,1911.84 2489,1905.5C 2488.26,1903.56 2488.42,1901.73 2489.5,1900C 2534.24,1902.48 2574.91,1890.98 2611.5,1865.5 Z"/></g>
<g><path style="opacity:1" fill="#0b0b0b" d="M 1942.5,1868.5 C 1945.44,1869.93 1946.94,1872.26 1947,1875.5C 1872.25,1949.92 1797.08,2024.09 1721.5,2098C 1720.21,2098.49 1718.87,2098.66 1717.5,2098.5C 1716.64,2096.18 1716.14,2093.85 1716,2091.5C 1791.83,2017.16 1867.33,1942.83 1942.5,1868.5 Z"/></g>
<g><path style="opacity:1" fill="#0c0c0b" d="M 1579.5,1884.5 C 1594.83,1884.5 1610.17,1884.5 1625.5,1884.5C 1625.77,1887.12 1625.44,1889.62 1624.5,1892C 1609.83,1892.67 1595.17,1892.67 1580.5,1892C 1578.29,1889.76 1577.95,1887.26 1579.5,1884.5 Z"/></g>
<g><path style="opacity:1" fill="#f9f9f9" d="M 2876.5,1953.5 C 2891.22,1952.57 2904.55,1956.41 2916.5,1965C 2925.65,1973.48 2930.32,1983.98 2930.5,1996.5C 2929.1,2007.57 2927.27,2018.57 2925,2029.5C 2896.1,2140.25 2875.1,2252.59 2862,2366.5C 2861.36,2374.5 2860.86,2382.5 2860.5,2390.5C 2828.86,2389.52 2797.2,2389.19 2765.5,2389.5C 2765.3,2366.77 2766.47,2344.1 2769,2321.5C 2780.48,2221.92 2798.48,2123.59 2823,2026.5C 2826.06,2014.31 2829.73,2002.31 2834,1990.5C 2841.1,1969.89 2855.27,1957.56 2876.5,1953.5 Z"/></g>
<g><path style="opacity:1" fill="#0c0c0c" d="M 1918.5,1987.5 C 1922.1,1988.59 1923.94,1990.92 1924,1994.5C 1901.86,2014.97 1880.03,2035.8 1858.5,2057C 1854.23,2057.38 1851.73,2055.54 1851,2051.5C 1873.7,2030.3 1896.2,2008.97 1918.5,1987.5 Z"/></g>
<g><path style="opacity:1" fill="#f6f5f6" d="M 2400.5,2013.5 C 2401.38,2013.37 2402.04,2013.7 2402.5,2014.5C 2397.72,2028.3 2393.55,2042.3 2390,2056.5C 2384.16,2084.37 2378.83,2112.37 2374,2140.5C 2373.46,2142.63 2372.62,2144.63 2371.5,2146.5C 2358.74,2138.12 2346.74,2128.79 2335.5,2118.5C 2353.08,2090.33 2370.92,2062.33 2389,2034.5C 2393.31,2027.7 2397.15,2020.7 2400.5,2013.5 Z"/></g>
<g><path style="opacity:1" fill="#f5f5f5" d="M 1403.5,2020.5 C 1405.48,2021.85 1406.65,2023.85 1407,2026.5C 1410.49,2039.43 1413.15,2052.43 1415,2065.5C 1387.23,2154.25 1360.23,2243.25 1334,2332.5C 1329.26,2345.37 1331.43,2356.87 1340.5,2367C 1344.12,2369.48 1348.12,2370.81 1352.5,2371C 1421.5,2371.5 1490.5,2371.67 1559.5,2371.5C 1559.5,2379.17 1559.5,2386.83 1559.5,2394.5C 1470.5,2394.67 1381.5,2394.5 1292.5,2394C 1290.1,2391.31 1288.77,2388.14 1288.5,2384.5C 1289.69,2378.42 1291.19,2372.42 1293,2366.5C 1329.72,2255.01 1366.05,2143.35 1402,2031.5C 1402.94,2027.89 1403.44,2024.22 1403.5,2020.5 Z"/></g>
<g><path style="opacity:1" fill="#f8f8f8" d="M 1419.5,2080.5 C 1430.16,2113.29 1442.32,2145.63 1456,2177.5C 1466.9,2199.65 1479.07,2220.98 1492.5,2241.5C 1451.84,2242.5 1411.17,2242.83 1370.5,2242.5C 1386.83,2188.5 1403.17,2134.5 1419.5,2080.5 Z"/></g>
<g><path style="opacity:1" fill="#090909" d="M 1596.5,2123.5 C 1598.65,2123.37 1600.65,2123.87 1602.5,2125C 1624.17,2138.67 1645.83,2152.33 1667.5,2166C 1669.02,2167.35 1670.35,2168.85 1671.5,2170.5C 1670.65,2172.41 1670.32,2174.41 1670.5,2176.5C 1668.69,2176.51 1667.02,2176.01 1665.5,2175C 1642.5,2160.16 1619.17,2145.83 1595.5,2132C 1594.04,2128.93 1594.37,2126.1 1596.5,2123.5 Z"/></g>
<g><path style="opacity:1" fill="#f7f7f7" d="M 1985.5,2280.5 C 1986.17,2279.83 1986.83,2279.17 1987.5,2278.5C 2061.09,2257.94 2135.76,2242.44 2211.5,2232C 2232.5,2229.62 2253.5,2227.29 2274.5,2225C 2294.72,2194.04 2315.06,2163.21 2335.5,2132.5C 2346.5,2140 2357.5,2147.5 2368.5,2155C 2369.94,2156.13 2370.61,2157.63 2370.5,2159.5C 2365.29,2192.21 2359.96,2224.87 2354.5,2257.5C 2269.59,2253.37 2185.25,2258.54 2101.5,2273C 2072.38,2279.1 2043.21,2284.94 2014,2290.5C 2004.16,2287.82 1994.66,2284.49 1985.5,2280.5 Z"/></g>
<g><path style="opacity:1" fill="#f9f9f9" d="M 2323.5,2449.5 C 2318.38,2448.19 2313.05,2447.53 2307.5,2447.5C 2237.69,2438.05 2169.02,2423.21 2101.5,2403C 2100.83,2399.67 2100.17,2396.33 2099.5,2393C 2087.78,2392.91 2076.11,2392.25 2064.5,2391C 2045.8,2384.38 2027.47,2376.88 2009.5,2368.5C 1993.5,2372.88 1977.84,2371.71 1962.5,2365C 1943.92,2355.21 1926.92,2343.21 1911.5,2329C 1902.7,2325.62 1893.7,2324.95 1884.5,2327C 1877.15,2329.17 1870.15,2332.17 1863.5,2336C 1855.1,2342.06 1846.44,2347.73 1837.5,2353C 1833.2,2354.54 1828.86,2354.7 1824.5,2353.5C 1835.77,2340.39 1848.44,2328.89 1862.5,2319C 1873.63,2312.96 1885.3,2308.29 1897.5,2305C 1898.86,2302.42 1898.19,2300.42 1895.5,2299C 1888.62,2298.38 1881.95,2299.38 1875.5,2302C 1865.35,2306.57 1855.68,2311.91 1846.5,2318C 1833.45,2328.72 1820.12,2339.05 1806.5,2349C 1794.56,2349.12 1793.89,2347.12 1804.5,2343C 1812.8,2333.7 1821.47,2324.7 1830.5,2316C 1847.6,2301.45 1867.27,2292.28 1889.5,2288.5C 1891.01,2285.06 1890.67,2281.89 1888.5,2279C 1866.5,2282.83 1846.83,2291.83 1829.5,2306C 1819.22,2315.28 1809.22,2324.94 1799.5,2335C 1797.55,2336.5 1795.55,2336.66 1793.5,2335.5C 1817.59,2298.29 1851.59,2276.45 1895.5,2270C 1900.5,2269.33 1905.5,2269.33 1910.5,2270C 1945.58,2277.14 1979.75,2287.31 2013,2300.5C 2088.2,2282.88 2164.37,2271.38 2241.5,2266C 2290.52,2265.28 2339.52,2265.61 2388.5,2267C 2390.91,2265.38 2392.74,2263.21 2394,2260.5C 2415.99,2219.2 2437.99,2177.86 2460,2136.5C 2522.19,2167.68 2585.36,2196.84 2649.5,2224C 2650.02,2224.56 2650.36,2225.23 2650.5,2226C 2621.85,2290.65 2582.18,2347.65 2531.5,2397C 2488.96,2437.8 2437.96,2456.64 2378.5,2453.5C 2360.05,2453.49 2341.72,2452.16 2323.5,2449.5 Z"/></g>
<g><path style="opacity:1" fill="#494848" d="M 1174.5,2116.5 C 1174.17,2135.34 1174.5,2154.01 1175.5,2172.5C 1175.01,2173.47 1174.51,2174.47 1174,2175.5C 1173.17,2155.66 1173.34,2136 1174.5,2116.5 Z"/></g>
<g><path style="opacity:1" fill="#efefee" d="M 2907.5,2137.5 C 2908.12,2137.61 2908.62,2137.94 2909,2138.5C 2909.93,2173.16 2910.43,2207.83 2910.5,2242.5C 2903.17,2242.5 2895.83,2242.5 2888.5,2242.5C 2894,2207.34 2900.33,2172.34 2907.5,2137.5 Z"/></g>
<g><path style="opacity:1" fill="#eeefee" d="M 1116.5,2146.5 C 1117.82,2146.33 1118.99,2146.66 1120,2147.5C 1126.66,2173.99 1132.5,2200.65 1137.5,2227.5C 1137.39,2228.44 1137.06,2229.28 1136.5,2230C 1133.17,2230.97 1131.01,2229.8 1130,2226.5C 1124.39,2201.19 1118.89,2175.86 1113.5,2150.5C 1113.79,2148.56 1114.79,2147.22 1116.5,2146.5 Z"/></g>
<g><path style="opacity:1" fill="#ececec" d="M 1186.5,2152.5 C 1189.95,2152.57 1191.28,2154.41 1190.5,2158C 1187.63,2181.87 1184.47,2205.7 1181,2229.5C 1178.62,2230.44 1176.12,2230.77 1173.5,2230.5C 1176.17,2204.1 1180.51,2178.1 1186.5,2152.5 Z"/></g>
<g><path style="opacity:1" fill="#eeeeee" d="M 1212.5,2179.5 C 1214.14,2179.29 1215.64,2179.62 1217,2180.5C 1217.17,2182.67 1217.33,2184.83 1217.5,2187C 1214.78,2201.55 1211.44,2215.88 1207.5,2230C 1205.17,2230.67 1202.83,2230.67 1200.5,2230C 1199.58,2226.54 1199.74,2223.04 1201,2219.5C 1204.39,2206.02 1208.23,2192.69 1212.5,2179.5 Z"/></g>
<g><path style="opacity:1" fill="#8d8a8f" d="M 1194.5,2202.5 C 1194.26,2203.79 1194.6,2204.79 1195.5,2205.5C 1194.52,2212.93 1193.02,2220.27 1191,2227.5C 1191.67,2219 1192.83,2210.67 1194.5,2202.5 Z"/></g>
<g><path style="opacity:1" fill="#f8f8f8" d="M 1104.5,2240.5 C 1144.51,2240.17 1184.51,2240.5 1224.5,2241.5C 1218.47,2292.45 1212.8,2343.45 1207.5,2394.5C 1178.83,2394.5 1150.17,2394.5 1121.5,2394.5C 1116.92,2343.04 1111.26,2291.71 1104.5,2240.5 Z"/></g>
<g><path style="opacity:1" fill="#4b4c4b" d="M 1241.5,2251.5 C 1268.17,2251.17 1294.84,2251.5 1321.5,2252.5C 1321.38,2253.11 1321.04,2253.44 1320.5,2253.5C 1294.17,2252.83 1267.83,2252.17 1241.5,2251.5 Z"/></g>
<g><path style="opacity:1" fill="#939394" d="M 1941.5,2268.5 C 1944.41,2267.3 1947.41,2267.47 1950.5,2269C 1947.45,2269.63 1944.45,2269.47 1941.5,2268.5 Z"/></g>
<g><path style="opacity:1" fill="#bfbcbf" d="M 1960.5,2271.5 C 1963.23,2270.81 1965.9,2271.47 1968.5,2273.5C 1965.75,2273.93 1963.09,2273.27 1960.5,2271.5 Z"/></g>
<g><path style="opacity:1" fill="#959495" d="M 1987.5,2278.5 C 1986.83,2279.17 1986.17,2279.83 1985.5,2280.5C 1980.12,2278.71 1974.79,2276.71 1969.5,2274.5C 1970.17,2274.17 1970.83,2273.83 1971.5,2273.5C 1976.59,2275.97 1981.92,2277.64 1987.5,2278.5 Z"/></g>
<g><path style="opacity:1" fill="#f6f6f7" d="M 1350.5,2315.5 C 1499.5,2315.33 1648.5,2315.5 1797.5,2316C 1786.86,2322.78 1782.36,2332.28 1784,2344.5C 1786.98,2347.4 1789.81,2350.4 1792.5,2353.5C 1789.22,2354.66 1785.88,2354.82 1782.5,2354C 1751.13,2348.57 1719.63,2344.07 1688,2340.5C 1686.5,2340.83 1685,2341.17 1683.5,2341.5C 1682.51,2359.12 1682.18,2376.79 1682.5,2394.5C 1643.83,2394.5 1605.17,2394.5 1566.5,2394.5C 1566.67,2384.49 1566.5,2374.49 1566,2364.5C 1565.25,2363.87 1564.42,2363.37 1563.5,2363C 1492.83,2362.67 1422.17,2362.33 1351.5,2362C 1345.38,2358.42 1342.04,2353.09 1341.5,2346C 1343.19,2335.42 1346.19,2325.26 1350.5,2315.5 Z"/></g>
<g><path style="opacity:1" fill="#f8f8f8" d="M 1225.5,2315.5 C 1250.46,2316.15 1275.46,2316.82 1300.5,2317.5C 1293.76,2335.23 1287.92,2353.23 1283,2371.5C 1281.12,2379.05 1280.29,2386.72 1280.5,2394.5C 1259.5,2394.5 1238.5,2394.5 1217.5,2394.5C 1218.68,2368 1221.35,2341.67 1225.5,2315.5 Z"/></g>
<g><path style="opacity:1" fill="#0b0b0b" d="M 2717.5,2330.5 C 2721.15,2331.46 2722.31,2333.79 2721,2337.5C 2706.2,2352.3 2689.7,2364.8 2671.5,2375C 2665.91,2376.91 2663.74,2375.08 2665,2369.5C 2683.37,2357.58 2700.87,2344.58 2717.5,2330.5 Z"/></g>
<g><path style="opacity:1" fill="#ecebeb" d="M 1891.5,2336.5 C 1895.82,2337.65 1900.16,2337.81 1904.5,2337C 1911.52,2340.17 1917.85,2344.34 1923.5,2349.5C 1923,2349.83 1922.5,2350.17 1922,2350.5C 1912.77,2347.15 1903.27,2344.98 1893.5,2344C 1889.11,2342.41 1888.45,2339.91 1891.5,2336.5 Z"/></g>
<g><path style="opacity:1" fill="#f4f4f4" d="M 1876.5,2339.5 C 1877.5,2339.41 1878.33,2339.75 1879,2340.5C 1880.09,2346.92 1883.92,2350.76 1890.5,2352C 1903.96,2355.41 1917.63,2357.41 1931.5,2358C 1940.49,2362.16 1949.15,2366.82 1957.5,2372C 1974.23,2379.23 1991.57,2381.23 2009.5,2378C 2019.99,2382.74 2030.32,2387.74 2040.5,2393C 2012.84,2393.5 1985.17,2393.67 1957.5,2393.5C 1957.3,2388.3 1957.63,2383.13 1958.5,2378C 1958.09,2375.79 1956.76,2374.45 1954.5,2374C 1918.05,2369.87 1881.71,2365.04 1845.5,2359.5C 1854.77,2353.19 1864.43,2347.36 1874.5,2342C 1875.38,2341.29 1876.05,2340.46 1876.5,2339.5 Z"/></g>
<g><path style="opacity:1" fill="#f8f7f7" d="M 1691.5,2349.5 C 1774.4,2360.65 1857.4,2371.15 1940.5,2381C 1943.51,2381.33 1946.34,2382.17 1949,2383.5C 1949.5,2386.82 1949.67,2390.15 1949.5,2393.5C 1863.17,2393.5 1776.83,2393.5 1690.5,2393.5C 1690.51,2378.82 1690.85,2364.16 1691.5,2349.5 Z"/></g>
<g><path style="opacity:1" fill="#b7bac0" d="M 2555.5,2387.5 C 2600.17,2388.17 2644.83,2388.83 2689.5,2389.5C 2644.5,2389.83 2599.5,2389.5 2554.5,2388.5C 2554.62,2387.89 2554.96,2387.56 2555.5,2387.5 Z"/></g>
<g><path style="opacity:1" fill="#f8f8f8" d="M 2542.5,2398.5 C 2647.5,2398.33 2752.5,2398.5 2857.5,2399C 2861.73,2402.89 2864.73,2407.56 2866.5,2413C 2862.85,2417.32 2859.18,2421.66 2855.5,2426C 2739.48,2426.35 2623.48,2426.69 2507.5,2427C 2519.65,2418.01 2531.31,2408.51 2542.5,2398.5 Z"/></g>
<g><path style="opacity:1" fill="#f9f9f9" d="M 2056.5,2456.5 C 2064.99,2455.67 2073.66,2455.17 2082.5,2455C 2066.18,2454.03 2049.85,2453.53 2033.5,2453.5C 1999.05,2453.72 1964.22,2454.05 1929,2454.5C 1766.01,2452.68 1602.85,2452.18 1439.5,2453C 1405.12,2453.17 1370.79,2453.67 1336.5,2454.5C 1326.83,2453.15 1317.17,2453.32 1307.5,2455C 1308.06,2455.38 1308.39,2455.88 1308.5,2456.5C 1221.5,2456.5 1134.5,2456.5 1047.5,2456.5C 1047.5,2438.83 1047.5,2421.17 1047.5,2403.5C 1395.85,2403.47 1744.18,2403.47 2092.5,2403.5C 2092.5,2421.17 2092.5,2438.83 2092.5,2456.5C 2080.5,2456.5 2068.5,2456.5 2056.5,2456.5 Z"/></g>
<g><path style="opacity:1" fill="#f2f2f2" d="M 2100.5,2411.5 C 2115.14,2415.82 2129.81,2420.16 2144.5,2424.5C 2129.89,2428.48 2115.23,2432.15 2100.5,2435.5C 2100.5,2427.5 2100.5,2419.5 2100.5,2411.5 Z"/></g>
<g><path style="opacity:1" fill="#f8f8f8" d="M 2160.5,2428.5 C 2194.95,2437.11 2229.62,2444.78 2264.5,2451.5C 2221.68,2463.71 2179.02,2476.54 2136.5,2490C 2103.72,2500.7 2071.72,2513.37 2040.5,2528C 2002,2549.17 1972.17,2579 1951,2617.5C 1946.97,2577.82 1942.8,2538.16 1938.5,2498.5C 1938.83,2497.5 1939.17,2496.5 1939.5,2495.5C 1964.94,2483.41 1991.28,2473.57 2018.5,2466C 2045.83,2465.5 2073.16,2465.33 2100.5,2465.5C 2100.19,2457.91 2100.52,2450.41 2101.5,2443C 2118.04,2440.78 2134.37,2437.45 2150.5,2433C 2154.23,2432.16 2157.56,2430.66 2160.5,2428.5 Z"/></g>
<g><path style="opacity:1" fill="#8c8888" d="M 2842.5,2435.5 C 2847.31,2434.51 2852.31,2434.18 2857.5,2434.5C 2857.81,2437.71 2857.48,2440.71 2856.5,2443.5C 2856.5,2440.83 2856.5,2438.17 2856.5,2435.5C 2851.83,2435.5 2847.17,2435.5 2842.5,2435.5 Z"/></g>
<g><path style="opacity:1" fill="#f9f9f9" d="M 2832.5,2435.5 C 2835.83,2435.5 2839.17,2435.5 2842.5,2435.5C 2847.17,2435.5 2851.83,2435.5 2856.5,2435.5C 2856.5,2438.17 2856.5,2440.83 2856.5,2443.5C 2855.2,2465.14 2854.37,2486.81 2854,2508.5C 2853.67,2557.83 2853.33,2607.17 2853,2656.5C 2852.36,2689.47 2841.52,2718.47 2820.5,2743.5C 2814.82,2707.51 2795.16,2682.84 2761.5,2669.5C 2763.04,2651.2 2764.04,2632.86 2764.5,2614.5C 2763.26,2583.84 2762.26,2553.17 2761.5,2522.5C 2761.5,2493.83 2761.5,2465.17 2761.5,2436.5C 2785.34,2436.83 2809.01,2436.5 2832.5,2435.5 Z"/></g>
<g><path style="opacity:1" fill="#f8f8f8" d="M 2751.5,2494.5 C 2751.5,2498.83 2751.5,2503.17 2751.5,2507.5C 2750.5,2507.5 2749.5,2507.5 2748.5,2507.5C 2705.38,2501.98 2663.04,2492.81 2621.5,2480C 2580.62,2467.93 2540.28,2454.26 2500.5,2439C 2499.03,2438.29 2498.36,2437.12 2498.5,2435.5C 2582.83,2436.71 2667.16,2436.71 2751.5,2435.5C 2751.5,2455.17 2751.5,2474.83 2751.5,2494.5 Z"/></g>
<g><path style="opacity:1" fill="#f9f9f9" d="M 2483.5,2441.5 C 2562.05,2474.85 2643.39,2499.02 2727.5,2514C 2735.8,2515.25 2744.13,2516.08 2752.5,2516.5C 2748.84,2549.98 2738.67,2581.31 2722,2610.5C 2706.75,2635.09 2685.91,2653.26 2659.5,2665C 2589.5,2665.83 2519.5,2665.67 2449.5,2664.5C 2436.29,2613.38 2422.79,2562.38 2409,2511.5C 2407,2502.16 2405,2492.83 2403,2483.5C 2402.09,2476.35 2402.76,2469.35 2405,2462.5C 2427.37,2460.52 2449.2,2455.68 2470.5,2448C 2475.17,2446.33 2479.51,2444.16 2483.5,2441.5 Z"/></g>
<g><path style="opacity:1" fill="#acacac" d="M 2307.5,2447.5 C 2313.05,2447.53 2318.38,2448.19 2323.5,2449.5C 2317.93,2449.62 2312.6,2448.96 2307.5,2447.5 Z"/></g>
<g><path style="opacity:1" fill="#f3f4f4" d="M 2056.5,2456.5 C 1807.17,2456.5 1557.83,2456.5 1308.5,2456.5C 1308.39,2455.88 1308.06,2455.38 1307.5,2455C 1317.17,2453.32 1326.83,2453.15 1336.5,2454.5C 1370.79,2453.67 1405.12,2453.17 1439.5,2453C 1602.85,2452.18 1766.01,2452.68 1929,2454.5C 1964.22,2454.05 1999.05,2453.72 2033.5,2453.5C 2049.85,2453.53 2066.18,2454.03 2082.5,2455C 2073.66,2455.17 2064.99,2455.67 2056.5,2456.5 Z"/></g>
<g><path style="opacity:1" fill="#f9f9f9" d="M 2285.5,2454.5 C 2308.44,2457.33 2331.44,2459.66 2354.5,2461.5C 2353.56,2466.81 2353.39,2472.14 2354,2477.5C 2357.82,2493.11 2361.49,2508.78 2365,2524.5C 2378.56,2571.33 2391.39,2618.33 2403.5,2665.5C 2376.16,2665.33 2348.83,2665.5 2321.5,2666C 2285.3,2667.71 2255.14,2681.88 2231,2708.5C 2225.19,2716.62 2220.03,2725.12 2215.5,2734C 2199.43,2741.78 2183.6,2749.95 2168,2758.5C 2161.59,2778.39 2155.59,2798.39 2150,2818.5C 2118.3,2945.65 2088.63,3073.31 2061,3201.5C 2059.94,3202.1 2058.77,3202.43 2057.5,3202.5C 2040.43,3200.08 2023.43,3197.41 2006.5,3194.5C 1988.74,3012.87 1971.24,2831.2 1954,2649.5C 1953.33,2644.5 1953.33,2639.5 1954,2634.5C 1971.24,2594.26 1998.74,2563.09 2036.5,2541C 2061.67,2527.72 2087.67,2516.39 2114.5,2507C 2169.32,2488.84 2224.65,2472.51 2280.5,2458C 2282.88,2457.78 2284.55,2456.61 2285.5,2454.5 Z"/></g>
<g><path style="opacity:1" fill="#c0c0bf" d="M 2832.5,2435.5 C 2809.01,2436.5 2785.34,2436.83 2761.5,2436.5C 2761.5,2465.17 2761.5,2493.83 2761.5,2522.5C 2760.5,2493.67 2760.17,2464.67 2760.5,2435.5C 2784.5,2435.5 2808.5,2435.5 2832.5,2435.5 Z"/></g>
<g><path style="opacity:1" fill="#f7f7f7" d="M 2362.5,2462.5 C 2373.85,2462.17 2385.19,2462.5 2396.5,2463.5C 2394.08,2468.02 2393.08,2472.85 2393.5,2478C 2393.57,2482.88 2394.07,2487.71 2395,2492.5C 2415.68,2570.88 2436.51,2649.21 2457.5,2727.5C 2451.87,2741.47 2443.7,2743.13 2433,2732.5C 2431.39,2729.62 2430.06,2726.62 2429,2723.5C 2405.91,2640.79 2383.91,2557.79 2363,2474.5C 2362.5,2470.51 2362.33,2466.51 2362.5,2462.5 Z"/></g>
<g><path style="opacity:1" fill="#9b9a99" d="M 1936.5,2466.5 C 1952.66,2465.34 1968.99,2465.17 1985.5,2466C 1984.47,2466.51 1983.47,2467.01 1982.5,2467.5C 1967.34,2466.5 1952.01,2466.17 1936.5,2466.5 Z"/></g>
<g><path style="opacity:1" fill="#f7f7f7" d="M 1270.5,2465.5 C 1282.85,2465.17 1295.18,2465.5 1307.5,2466.5C 1290.37,2533.7 1273.87,2601.03 1258,2668.5C 1202.78,2907.69 1147.12,3146.69 1091,3385.5C 1080.92,3386.49 1070.75,3386.82 1060.5,3386.5C 1060.34,3383.81 1060.5,3381.15 1061,3378.5C 1076.2,3314.32 1090.87,3249.99 1105,3185.5C 1160.23,2945.54 1215.39,2705.54 1270.5,2465.5 Z"/></g>
<g><path style="opacity:1" fill="#f9f9f9" d="M 1409.5,3065.5 C 1404.73,3064.11 1399.73,3063.44 1394.5,3063.5C 1380.89,3061.72 1367.22,3061.22 1353.5,3062C 1340.37,3063.7 1329.2,3069.2 1320,3078.5C 1311.36,3088.91 1311.53,3099.08 1320.5,3109C 1385.48,3146.49 1450.81,3183.49 1516.5,3220C 1550.17,3238.17 1584.17,3255.67 1618.5,3272.5C 1624.14,3265.89 1629.31,3258.89 1634,3251.5C 1653.42,3220.33 1672.09,3188.66 1690,3156.5C 1702.72,3139.44 1715.05,3122.11 1727,3104.5C 1728.05,3103.48 1729.22,3103.32 1730.5,3104C 1741.33,3110.92 1752.33,3117.58 1763.5,3124C 1764.83,3124.67 1766.17,3124.67 1767.5,3124C 1778,3109.5 1788.5,3095 1799,3080.5C 1824,3043.17 1849,3005.83 1874,2968.5C 1874.67,2971.83 1874.67,2975.17 1874,2978.5C 1864.64,3042.84 1856.47,3107.34 1849.5,3172C 1849.67,3174.17 1849.83,3176.33 1850,3178.5C 1850.75,3179.13 1851.58,3179.63 1852.5,3180C 1862.09,3182.08 1871.75,3183.58 1881.5,3184.5C 1879.94,3203.5 1878.11,3222.5 1876,3241.5C 1842.7,3262.24 1808.2,3281.07 1772.5,3298C 1749.83,3307.67 1727.17,3317.33 1704.5,3327C 1688.85,3332.99 1677.35,3343.49 1670,3358.5C 1668.25,3366.11 1668.08,3373.78 1669.5,3381.5C 1669.5,3382.83 1669.5,3384.17 1669.5,3385.5C 1479.83,3385.5 1290.17,3385.5 1100.5,3385.5C 1171.36,3079.05 1243.19,2772.72 1316,2466.5C 1503.76,2465.5 1691.6,2465.17 1879.5,2465.5C 1882.15,2487.12 1883.98,2508.78 1885,2530.5C 1871.62,2543.88 1858.96,2557.88 1847,2572.5C 1800.87,2633.98 1757.87,2697.65 1718,2763.5C 1683.67,2819.83 1649.33,2876.17 1615,2932.5C 1602.37,2954.94 1589.87,2977.44 1577.5,3000C 1578.72,3003.22 1580.72,3005.89 1583.5,3008C 1588.54,3011.51 1593.54,3015.01 1598.5,3018.5C 1587.59,3037.56 1576.09,3056.23 1564,3074.5C 1512.49,3073.36 1460.99,3070.36 1409.5,3065.5 Z"/></g>
<g><path style="opacity:1" fill="#f7f7f7" d="M 1946.5,2667.5 C 1946.44,2672.73 1947.11,2677.73 1948.5,2682.5C 1955.41,2747.04 1961.41,2811.7 1966.5,2876.5C 1966.45,2882.39 1967.12,2888.06 1968.5,2893.5C 1977.47,2986.46 1986.14,3079.46 1994.5,3172.5C 1994.3,3177.75 1994.97,3182.75 1996.5,3187.5C 2001.81,3241.17 2007.31,3294.83 2013,3348.5C 2014.02,3358.81 2014.52,3369.14 2014.5,3379.5C 2014.5,3381.5 2014.5,3383.5 2014.5,3385.5C 2005.5,3385.5 1996.5,3385.5 1987.5,3385.5C 1986.5,3385.59 1985.67,3385.25 1985,3384.5C 1968.82,3253.07 1954.66,3121.4 1942.5,2989.5C 1943.14,2988.9 1943.47,2988.07 1943.5,2987C 1942.41,2979.3 1941.08,2971.8 1939.5,2964.5C 1928.58,2856.83 1917.58,2749.17 1906.5,2641.5C 1906.67,2637.49 1906.5,2633.49 1906,2629.5C 1905.77,2628.26 1905.27,2627.26 1904.5,2626.5C 1898.97,2572.85 1893.64,2519.19 1888.5,2465.5C 1901.41,2465.18 1914.25,2465.51 1927,2466.5C 1934.16,2533.42 1940.66,2600.42 1946.5,2667.5 Z"/></g>
<g><path style="opacity:1" fill="#f5f5f5" d="M 1936.5,2466.5 C 1952.01,2466.17 1967.34,2466.5 1982.5,2467.5C 1967.17,2472.72 1952.17,2478.72 1937.5,2485.5C 1936.68,2479.2 1936.35,2472.87 1936.5,2466.5 Z"/></g>
<g><path style="opacity:1" fill="#a5a6a6" d="M 2751.5,2494.5 C 2752.49,2498.97 2752.82,2503.64 2752.5,2508.5C 2750.9,2508.77 2749.57,2508.43 2748.5,2507.5C 2749.5,2507.5 2750.5,2507.5 2751.5,2507.5C 2751.5,2503.17 2751.5,2498.83 2751.5,2494.5 Z"/></g>
<g><path style="opacity:1" fill="#090909" d="M 2603.5,2514.5 C 2606.71,2514.11 2609.05,2515.27 2610.5,2518C 2592.43,2543.88 2568.76,2562.88 2539.5,2575C 2523.54,2581.21 2507.21,2586.21 2490.5,2590C 2487.77,2590.82 2485.11,2590.65 2482.5,2589.5C 2481.22,2587.3 2481.22,2585.13 2482.5,2583C 2509.58,2577.42 2535.25,2568.08 2559.5,2555C 2576.87,2544.47 2591.53,2530.97 2603.5,2514.5 Z"/></g>
<g><path style="opacity:1" fill="#f9f9f9" d="M 1894.5,2620.5 C 1894.44,2625.73 1895.11,2630.73 1896.5,2635.5C 1900.5,2674.47 1904.5,2713.47 1908.5,2752.5C 1897.7,2816.32 1887.87,2880.32 1879,2944.5C 1842.2,3000.97 1804.2,3056.63 1765,3111.5C 1762.79,3112.75 1760.62,3112.58 1758.5,3111C 1707.66,3079.08 1657.32,3046.41 1607.5,3013C 1601.28,3008.4 1595.28,3003.56 1589.5,2998.5C 1602.67,2974.83 1615.83,2951.17 1629,2927.5C 1669,2862.17 1709,2796.83 1749,2731.5C 1770.08,2699 1791.42,2666.66 1813,2634.5C 1828.42,2613.32 1844.09,2592.32 1860,2571.5C 1867.93,2561.57 1876.6,2552.23 1886,2543.5C 1887.46,2549.41 1888.46,2555.41 1889,2561.5C 1891.24,2581.13 1893.07,2600.8 1894.5,2620.5 Z"/></g>
<g><path style="opacity:1" fill="#f7f7f7" d="M 2752.5,2561.5 C 2753.17,2575.5 2753.83,2589.5 2754.5,2603.5C 2754.67,2621.84 2754.5,2640.17 2754,2658.5C 2753.81,2660.71 2753.31,2662.71 2752.5,2664.5C 2729.14,2665.16 2706.14,2664.49 2683.5,2662.5C 2709.7,2644.8 2729.2,2621.46 2742,2592.5C 2746.21,2582.38 2749.71,2572.04 2752.5,2561.5 Z"/></g>
<g><path style="opacity:1" fill="#a4a4a3" d="M 2752.5,2561.5 C 2752.56,2560.96 2752.89,2560.62 2753.5,2560.5C 2754.5,2574.82 2754.83,2589.15 2754.5,2603.5C 2753.83,2589.5 2753.17,2575.5 2752.5,2561.5 Z"/></g>
<g><path style="opacity:1" fill="#090908" d="M 2307.5,2620.5 C 2313.83,2619.5 2316.5,2622.17 2315.5,2628.5C 2276.29,2638.63 2237.95,2651.46 2200.5,2667C 2186.01,2674.41 2171.67,2682.08 2157.5,2690C 2156.06,2690.78 2154.72,2690.61 2153.5,2689.5C 2152.21,2686.97 2152.21,2684.47 2153.5,2682C 2177.31,2667.59 2202.31,2655.59 2228.5,2646C 2254.9,2637.32 2281.24,2628.82 2307.5,2620.5 Z"/></g>
<g><path style="opacity:1" fill="#b6b6b6" d="M 1894.5,2620.5 C 1895.89,2625.27 1896.56,2630.27 1896.5,2635.5C 1895.11,2630.73 1894.44,2625.73 1894.5,2620.5 Z"/></g>
<g><path style="opacity:1" fill="#b5b5b6" d="M 1904.5,2626.5 C 1905.27,2627.26 1905.77,2628.26 1906,2629.5C 1906.5,2633.49 1906.67,2637.49 1906.5,2641.5C 1905.6,2636.67 1904.93,2631.67 1904.5,2626.5 Z"/></g>
<g><path style="opacity:1" fill="#535458" d="M 2683.5,2662.5 C 2706.14,2664.49 2729.14,2665.16 2752.5,2664.5C 2728.34,2665.66 2704,2665.83 2679.5,2665C 2680.69,2663.91 2682.03,2663.07 2683.5,2662.5 Z"/></g>
<g><path style="opacity:1" fill="#f8f8f8" d="M 2331.5,2674.5 C 2356.17,2674.33 2380.84,2674.5 2405.5,2675C 2411.3,2696.04 2417.8,2716.87 2425,2737.5C 2433.45,2748.42 2443.95,2750.92 2456.5,2745C 2464.12,2738.15 2466.62,2729.65 2464,2719.5C 2460.06,2704.51 2456.23,2689.51 2452.5,2674.5C 2551.83,2674.33 2651.17,2674.5 2750.5,2675C 2779.66,2683.83 2799.16,2702.66 2809,2731.5C 2815.08,2749.3 2809.58,2761.8 2792.5,2769C 2789.59,2770.29 2786.59,2771.29 2783.5,2772C 2603.17,2772.67 2422.83,2772.67 2242.5,2772C 2225.57,2764.7 2220.4,2752.2 2227,2734.5C 2238.38,2707.46 2258.21,2689.96 2286.5,2682C 2301.42,2678.13 2316.42,2675.63 2331.5,2674.5 Z"/></g>
<g><path style="opacity:1" fill="#b0b0b1" d="M 1946.5,2667.5 C 1947.89,2672.27 1948.56,2677.27 1948.5,2682.5C 1947.11,2677.73 1946.44,2672.73 1946.5,2667.5 Z"/></g>
<g><path style="opacity:1" fill="#f9f9f9" d="M 2427.5,2825.5 C 2462.33,2826.5 2497.33,2826.83 2532.5,2826.5C 2532.17,2876 2532.5,2925.34 2533.5,2974.5C 2532.67,2975.75 2531.33,2976.41 2529.5,2976.5C 2525.52,2977.16 2521.52,2977.5 2517.5,2977.5C 2517.67,3035.5 2517.5,3093.5 2517,3151.5C 2417.82,3191.5 2318.66,3231.67 2219.5,3272C 2219,3272.5 2218.5,3273 2218,3273.5C 2217.43,3277.85 2216.76,3282.18 2216,3286.5C 2215.89,3293.84 2215.89,3301.17 2216,3308.5C 2187.44,3323.51 2180.11,3345.51 2194,3374.5C 2196.27,3378.04 2198.77,3381.38 2201.5,3384.5C 2200.08,3386.31 2198.08,3386.97 2195.5,3386.5C 2138.5,3386.5 2081.5,3386.5 2024.5,3386.5C 2024.31,3327.28 2027.64,3268.28 2034.5,3209.5C 2043.7,3210.13 2052.87,3211.13 2062,3212.5C 2064.3,3212.4 2066.3,3211.73 2068,3210.5C 2090.06,3108.94 2113.06,3007.61 2137,2906.5C 2148.42,2859.51 2161.08,2812.84 2175,2766.5C 2176.05,2764.91 2177.21,2763.41 2178.5,2762C 2191.08,2756.71 2203.41,2750.88 2215.5,2744.5C 2215.96,2752.4 2217.46,2760.06 2220,2767.5C 2225.64,2774.41 2232.81,2778.91 2241.5,2781C 2291.17,2781.33 2340.83,2781.67 2390.5,2782C 2394.85,2796.7 2402.51,2809.36 2413.5,2820C 2417.73,2822.91 2422.4,2824.75 2427.5,2825.5 Z"/></g>
<g><path style="opacity:1" fill="#0a0a0a" d="M 2100.5,2752.5 C 2102.53,2752.34 2104.53,2752.5 2106.5,2753C 2107.57,2753.74 2108.24,2754.74 2108.5,2756C 2093.01,2788.46 2081.51,2822.29 2074,2857.5C 2073.31,2860.41 2072.14,2863.07 2070.5,2865.5C 2066.16,2864.34 2064.5,2861.51 2065.5,2857C 2072.27,2820.51 2083.94,2785.68 2100.5,2752.5 Z"/></g>
<g><path style="opacity:1" fill="#070708" d="M 1856.5,2774.5 C 1858.59,2774.32 1860.59,2774.65 1862.5,2775.5C 1863.66,2779.12 1863.83,2782.79 1863,2786.5C 1855.26,2825.22 1847.26,2863.89 1839,2902.5C 1836.69,2904.46 1834.19,2904.8 1831.5,2903.5C 1826.25,2887.68 1819.92,2872.35 1812.5,2857.5C 1806,2886.82 1799.5,2916.16 1793,2945.5C 1791.58,2947.36 1789.75,2947.86 1787.5,2947C 1786.3,2945.65 1785.63,2943.98 1785.5,2942C 1791.41,2910.39 1797.91,2878.89 1805,2847.5C 1805.47,2846.07 1806.3,2844.9 1807.5,2844C 1810.99,2843 1814.16,2843.5 1817,2845.5C 1822.48,2858.95 1828.15,2872.28 1834,2885.5C 1841.83,2848.5 1849.33,2811.5 1856.5,2774.5 Z"/></g>
<g><path style="opacity:1" fill="#cecdd0" d="M 2401.5,2782.5 C 2499.67,2781.5 2598,2781.17 2696.5,2781.5C 2696.74,2782.79 2696.4,2783.79 2695.5,2784.5C 2597.84,2782.5 2499.84,2781.84 2401.5,2782.5 Z"/></g>
<g><path style="opacity:1" fill="#f9f9f9" d="M 2401.5,2782.5 C 2499.84,2781.84 2597.84,2782.5 2695.5,2784.5C 2693.24,2795.19 2688.24,2804.35 2680.5,2812C 2678.04,2813.71 2675.38,2815.04 2672.5,2816C 2590.5,2816.67 2508.5,2816.67 2426.5,2816C 2412.66,2808.99 2404.33,2797.82 2401.5,2782.5 Z"/></g>
<g><path style="opacity:1" fill="#f7f7f7" d="M 1950.5,3165.5 C 1950.36,3170.41 1951.03,3175.08 1952.5,3179.5C 1952.5,3180.5 1952.5,3181.5 1952.5,3182.5C 1952.5,3183.5 1952.5,3184.5 1952.5,3185.5C 1950.5,3185.5 1948.5,3185.5 1946.5,3185.5C 1917.67,3182.2 1889.01,3177.7 1860.5,3172C 1859.87,3170.26 1859.54,3168.43 1859.5,3166.5C 1863.56,3127.45 1868.06,3088.45 1873,3049.5C 1884.46,2965.05 1896.79,2880.72 1910,2796.5C 1910.67,2793.83 1911.33,2793.83 1912,2796.5C 1926.02,2919.39 1938.86,3042.39 1950.5,3165.5 Z"/></g>
<g><path style="opacity:1" fill="#f7f7f7" d="M 2543.5,2825.5 C 2550.09,2825.19 2556.59,2825.52 2563,2826.5C 2563.5,2876.5 2563.67,2926.5 2563.5,2976.5C 2556.5,2976.5 2549.5,2976.5 2542.5,2976.5C 2542.17,2926.09 2542.5,2875.76 2543.5,2825.5 Z"/></g>
<g><path style="opacity:1" fill="#c4c3c7" d="M 2427.5,2825.5 C 2462.83,2825.5 2498.17,2825.5 2533.5,2825.5C 2533.5,2875.17 2533.5,2924.83 2533.5,2974.5C 2532.5,2925.34 2532.17,2876 2532.5,2826.5C 2497.33,2826.83 2462.33,2826.5 2427.5,2825.5 Z"/></g>
<g><path style="opacity:1" fill="#a1a3a3" d="M 1966.5,2876.5 C 1967.88,2881.94 1968.55,2887.61 1968.5,2893.5C 1967.12,2888.06 1966.45,2882.39 1966.5,2876.5 Z"/></g>
<g><path style="opacity:1" fill="#0b0b0b" d="M 2041.5,2935.5 C 2045.37,2934.77 2048.03,2936.11 2049.5,2939.5C 2045.68,2956.11 2042.18,2972.78 2039,2989.5C 2036.6,2990.6 2034.1,2990.77 2031.5,2990C 2030.9,2988.94 2030.57,2987.77 2030.5,2986.5C 2033.15,2969.24 2036.81,2952.24 2041.5,2935.5 Z"/></g>
<g><path style="opacity:1" fill="#c5c5c6" d="M 1939.5,2964.5 C 1941.08,2971.8 1942.41,2979.3 1943.5,2987C 1943.47,2988.07 1943.14,2988.9 1942.5,2989.5C 1941.05,2981.36 1940.05,2973.03 1939.5,2964.5 Z"/></g>
<g><path style="opacity:1" fill="#f6f6f6" d="M 2526.5,2984.5 C 2544.41,2984.17 2562.24,2984.51 2580,2985.5C 2580.17,3042.5 2580.67,3099.5 2581.5,3156.5C 2669.43,3192.42 2757.43,3228.26 2845.5,3264C 2857.42,3268.75 2869.09,3274.09 2880.5,3280C 2881.48,3289.08 2881.82,3298.25 2881.5,3307.5C 2877.17,3307.5 2872.83,3307.5 2868.5,3307.5C 2868.67,3301.49 2868.5,3295.49 2868,3289.5C 2867.17,3287.33 2865.67,3285.83 2863.5,3285C 2781.5,3259 2699.5,3233 2617.5,3207C 2603.26,3202.14 2588.76,3198.31 2574,3195.5C 2572.56,3195.56 2571.23,3195.89 2570,3196.5C 2568.17,3200.28 2567.17,3204.28 2567,3208.5C 2563.55,3241.43 2561.05,3274.43 2559.5,3307.5C 2555.17,3307.5 2550.83,3307.5 2546.5,3307.5C 2544.06,3270.39 2540.73,3233.39 2536.5,3196.5C 2534.56,3195.15 2532.39,3194.48 2530,3194.5C 2434.76,3224.1 2339.6,3253.93 2244.5,3284C 2242.95,3285.21 2241.78,3286.71 2241,3288.5C 2240.5,3294.82 2240.33,3301.16 2240.5,3307.5C 2235.65,3305.96 2230.65,3305.29 2225.5,3305.5C 2224.04,3298.11 2224.21,3290.78 2226,3283.5C 2233.26,3278.12 2241.1,3273.62 2249.5,3270C 2341.19,3232.1 2433.02,3194.6 2525,3157.5C 2525.17,3099.76 2525.67,3042.1 2526.5,2984.5 Z"/></g>
<g><path style="opacity:1" fill="#0b0a0b" d="M 1746.5,3002.5 C 1748.72,3002.18 1750.56,3002.84 1752,3004.5C 1752.6,3008.05 1751.93,3011.39 1750,3014.5C 1744.61,3024.78 1738.11,3034.28 1730.5,3043C 1726,3044.48 1723.84,3042.98 1724,3038.5C 1732.26,3026.98 1739.76,3014.98 1746.5,3002.5 Z"/></g>
<g><path style="opacity:1" fill="#f8f8f8" d="M 1605.5,3023.5 C 1643.24,3047.55 1680.9,3071.88 1718.5,3096.5C 1719.61,3097.72 1719.78,3099.06 1719,3100.5C 1706.89,3118.28 1694.39,3135.78 1681.5,3153C 1653.89,3146.18 1626.22,3139.18 1598.5,3132C 1594.73,3130.56 1591.89,3128.06 1590,3124.5C 1583.54,3110.28 1577.37,3095.95 1571.5,3081.5C 1583.22,3062.43 1594.56,3043.1 1605.5,3023.5 Z"/></g>
<g><path style="opacity:1" fill="#b0b0af" d="M 1394.5,3063.5 C 1399.73,3063.44 1404.73,3064.11 1409.5,3065.5C 1404.27,3065.56 1399.27,3064.89 1394.5,3063.5 Z"/></g>
<g><path style="opacity:1" fill="#f6f6f6" d="M 1353.5,3070.5 C 1377.3,3071.29 1400.96,3073.46 1424.5,3077C 1429.81,3090.31 1431.64,3104.14 1430,3118.5C 1429.59,3122.27 1428.76,3125.94 1427.5,3129.5C 1425.93,3130.63 1424.26,3130.8 1422.5,3130C 1392.07,3115.29 1362.73,3098.79 1334.5,3080.5C 1333.17,3079.5 1333.17,3078.5 1334.5,3077.5C 1340.87,3074.94 1347.2,3072.6 1353.5,3070.5 Z"/></g>
<g><path style="opacity:1" fill="#f8f8f8" d="M 1469.5,3107.5 C 1470.49,3098.68 1470.83,3089.68 1470.5,3080.5C 1472.5,3080.5 1474.5,3080.5 1476.5,3080.5C 1481.21,3080.17 1485.88,3080.51 1490.5,3081.5C 1491.4,3090.53 1492.56,3099.53 1494,3108.5C 1496.38,3109.44 1498.88,3109.77 1501.5,3109.5C 1501.15,3100.43 1500.15,3091.43 1498.5,3082.5C 1506.5,3082.5 1514.5,3082.5 1522.5,3082.5C 1522.34,3091.27 1523.18,3099.93 1525,3108.5C 1527.11,3110.29 1529.61,3110.96 1532.5,3110.5C 1532.33,3101.13 1531.66,3091.79 1530.5,3082.5C 1541.21,3082.72 1551.88,3083.55 1562.5,3085C 1564.38,3087.25 1565.88,3089.75 1567,3092.5C 1572.12,3106.06 1577.78,3119.4 1584,3132.5C 1586.2,3135.04 1588.7,3137.21 1591.5,3139C 1618.98,3148.25 1646.98,3155.58 1675.5,3161C 1675.96,3161.41 1676.29,3161.91 1676.5,3162.5C 1673.17,3168.17 1669.83,3173.83 1666.5,3179.5C 1665.67,3179.83 1664.83,3180.17 1664,3180.5C 1651.27,3176.57 1638.27,3174.23 1625,3173.5C 1606.44,3173.02 1589.94,3178.52 1575.5,3190C 1569.9,3195.26 1564.73,3200.76 1560,3206.5C 1517.74,3184.87 1476.07,3162.2 1435,3138.5C 1437.9,3125.07 1438.9,3111.4 1438,3097.5C 1436.81,3090.74 1435.31,3084.07 1433.5,3077.5C 1443.19,3077.42 1452.85,3077.75 1462.5,3078.5C 1462.33,3087.17 1462.5,3095.84 1463,3104.5C 1464.21,3108.15 1466.38,3109.15 1469.5,3107.5 Z"/></g>
<g><path style="opacity:1" fill="#f5f5f5" d="M 1324.5,3088.5 C 1334.33,3092.41 1343.99,3096.91 1353.5,3102C 1441.58,3153.05 1530.92,3202.05 1621.5,3249C 1622.67,3250.87 1622.51,3252.7 1621,3254.5C 1618.82,3256.87 1616.66,3259.21 1614.5,3261.5C 1517.37,3210.11 1421.37,3156.94 1326.5,3102C 1322.02,3098.08 1321.35,3093.58 1324.5,3088.5 Z"/></g>
<g><path style="opacity:1" fill="#484848" d="M 1476.5,3080.5 C 1474.5,3080.5 1472.5,3080.5 1470.5,3080.5C 1470.83,3089.68 1470.49,3098.68 1469.5,3107.5C 1469.5,3098.17 1469.5,3088.83 1469.5,3079.5C 1472.06,3079.2 1474.39,3079.53 1476.5,3080.5 Z"/></g>
<g><path style="opacity:1" fill="#b1b2b2" d="M 1950.5,3165.5 C 1951.97,3169.92 1952.64,3174.59 1952.5,3179.5C 1951.03,3175.08 1950.36,3170.41 1950.5,3165.5 Z"/></g>
<g><path style="opacity:1" fill="#f7f7f7" d="M 1613.5,3182.5 C 1629.11,3181.77 1644.44,3183.44 1659.5,3187.5C 1650.48,3206.55 1640.14,3224.88 1628.5,3242.5C 1627.83,3242.83 1627.17,3243.17 1626.5,3243.5C 1610.53,3234.04 1594.2,3225.2 1577.5,3217C 1574.38,3215.46 1571.71,3213.46 1569.5,3211C 1580.39,3195.72 1595.05,3186.22 1613.5,3182.5 Z"/></g>
<g><path style="opacity:1" fill="#8f8e8e" d="M 1952.5,3182.5 C 1953.43,3183.57 1953.77,3184.9 1953.5,3186.5C 1950.94,3186.8 1948.61,3186.47 1946.5,3185.5C 1948.5,3185.5 1950.5,3185.5 1952.5,3185.5C 1952.5,3184.5 1952.5,3183.5 1952.5,3182.5 Z"/></g>
<g><path style="opacity:1" fill="#a5a6a6" d="M 1994.5,3172.5 C 1995.89,3177.27 1996.56,3182.27 1996.5,3187.5C 1994.97,3182.75 1994.3,3177.75 1994.5,3172.5 Z"/></g>
<g><path style="opacity:1" fill="#f7f7f7" d="M 1890.5,3186.5 C 1909.82,3189.71 1929.15,3192.88 1948.5,3196C 1950.68,3196.16 1952.51,3197 1954,3198.5C 1956.36,3216.12 1958.36,3233.79 1960,3251.5C 1960.8,3256.42 1960.63,3261.25 1959.5,3266C 1949.2,3270.24 1938.53,3272.58 1927.5,3273C 1912.2,3264.77 1898.03,3254.94 1885,3243.5C 1887.36,3224.59 1889.19,3205.59 1890.5,3186.5 Z"/></g>
<g><path style="opacity:1" fill="#f4f4f4" d="M 2006.5,3204.5 C 2013.13,3205.5 2019.8,3206.16 2026.5,3206.5C 2023.73,3223.77 2021.4,3241.1 2019.5,3258.5C 2014.88,3259.69 2012.38,3258.02 2012,3253.5C 2010.25,3237.15 2008.41,3220.81 2006.5,3204.5 Z"/></g>
<g><path style="opacity:1" fill="#f9f9f9" d="M 2522.5,3386.5 C 2434.66,3386.17 2347,3385.17 2259.5,3383.5C 2281.13,3355.86 2277.63,3331.86 2249,3311.5C 2248.33,3306.17 2248.33,3300.83 2249,3295.5C 2249.47,3294.07 2250.3,3292.9 2251.5,3292C 2343.85,3261.72 2436.52,3232.55 2529.5,3204.5C 2532.16,3239.18 2534.66,3273.84 2537,3308.5C 2523.56,3315.93 2514.56,3326.93 2510,3341.5C 2508.1,3358.69 2513.27,3373.36 2525.5,3385.5C 2524.68,3386.39 2523.68,3386.72 2522.5,3386.5 Z"/></g>
<g><path style="opacity:1" fill="#f9f9f9" d="M 2848.5,3386.5 C 2759.17,3385.83 2669.83,3385.17 2580.5,3384.5C 2592.32,3372.2 2596.82,3357.53 2594,3340.5C 2589.72,3327.38 2581.55,3317.38 2569.5,3310.5C 2568.52,3307.91 2568.19,3305.25 2568.5,3302.5C 2570.19,3293.05 2570.86,3283.39 2570.5,3273.5C 2571.96,3250.79 2573.96,3228.12 2576.5,3205.5C 2670,3232.96 2763,3262.13 2855.5,3293C 2856,3293.5 2856.5,3294 2857,3294.5C 2857.7,3300.18 2858.03,3305.84 2858,3311.5C 2837.17,3325.66 2830.83,3344.66 2839,3368.5C 2841.85,3374.85 2845.69,3380.52 2850.5,3385.5C 2850.04,3386.3 2849.38,3386.63 2848.5,3386.5 Z"/></g>
<g><path style="opacity:1" fill="#f8f8f8" d="M 1877.5,3251.5 C 1879.78,3251.61 1881.78,3252.44 1883.5,3254C 1896.19,3265.34 1910.19,3274.68 1925.5,3282C 1937.33,3282.39 1948.83,3280.56 1960,3276.5C 1960.77,3276.64 1961.44,3276.98 1962,3277.5C 1964.53,3287.37 1965.53,3297.37 1965,3307.5C 1948.52,3321.8 1938.85,3339.8 1936,3361.5C 1888.57,3362.5 1841.07,3362.83 1793.5,3362.5C 1794.2,3355.49 1793.03,3348.82 1790,3342.5C 1783.86,3331.68 1776.19,3322.02 1767,3313.5C 1766.33,3312.83 1766.33,3312.17 1767,3311.5C 1774.29,3307.1 1781.79,3303.1 1789.5,3299.5C 1795.32,3307.12 1800.65,3315.12 1805.5,3323.5C 1808.74,3322.45 1810.57,3320.45 1811,3317.5C 1806.87,3310.06 1802.37,3302.9 1797.5,3296C 1802.59,3292.13 1808.26,3289.3 1814.5,3287.5C 1820.58,3292.94 1825.75,3299.27 1830,3306.5C 1833.59,3310.64 1836.43,3310.14 1838.5,3305C 1833.93,3297.42 1828.93,3290.09 1823.5,3283C 1823.64,3282.23 1823.98,3281.56 1824.5,3281C 1830.66,3278.09 1836.66,3274.92 1842.5,3271.5C 1847.97,3279.47 1853.64,3287.31 1859.5,3295C 1864.26,3295.9 1866.76,3294.06 1867,3289.5C 1861.98,3282.14 1856.48,3275.14 1850.5,3268.5C 1859.73,3263.06 1868.73,3257.39 1877.5,3251.5 Z"/></g>
<g><path style="opacity:1" fill="#e9e9e9" d="M 2013.5,3264.5 C 2014.71,3265.23 2016.04,3265.57 2017.5,3265.5C 2017.5,3272.83 2017.5,3280.17 2017.5,3287.5C 2015.88,3287.64 2014.71,3286.97 2014,3285.5C 2013.5,3278.51 2013.33,3271.51 2013.5,3264.5 Z"/></g>
<g><path style="opacity:1" fill="#c4c4c5" d="M 2570.5,3273.5 C 2570.86,3283.39 2570.19,3293.05 2568.5,3302.5C 2568.31,3292.63 2568.98,3282.96 2570.5,3273.5 Z"/></g>
<g><path style="opacity:1" fill="#99999b" d="M 2015.5,3294.5 C 2016.65,3294.79 2017.32,3295.62 2017.5,3297C 2017.17,3297.83 2016.83,3298.67 2016.5,3299.5C 2015.55,3297.95 2015.21,3296.29 2015.5,3294.5 Z"/></g>
<g><path style="opacity:1" fill="#f7f7f8" d="M 2222.5,3315.5 C 2244.01,3314.17 2257.84,3323.84 2264,3344.5C 2265.55,3364.92 2256.72,3378.42 2237.5,3385C 2217.48,3387.66 2203.98,3379.49 2197,3360.5C 2193.65,3338.51 2202.15,3323.51 2222.5,3315.5 Z"/></g>
<g><path style="opacity:1" fill="#f8f8f8" d="M 1755.5,3315.5 C 1757.39,3315.3 1758.89,3315.96 1760,3317.5C 1766.71,3325.21 1773.05,3333.21 1779,3341.5C 1783.49,3347.81 1785.66,3354.81 1785.5,3362.5C 1749.83,3362.5 1714.17,3362.5 1678.5,3362.5C 1682.8,3354.35 1688.8,3347.52 1696.5,3342C 1715.75,3332.04 1735.42,3323.2 1755.5,3315.5 Z"/></g>
<g><path style="opacity:1" fill="#f7f7f7" d="M 2546.5,3315.5 C 2565.5,3314.41 2578.33,3322.74 2585,3340.5C 2588.86,3361.61 2581.03,3376.44 2561.5,3385C 2538.75,3388.24 2524.58,3378.74 2519,3356.5C 2517.37,3340.59 2523.2,3328.09 2536.5,3319C 2539.85,3317.51 2543.18,3316.35 2546.5,3315.5 Z"/></g>
<g><path style="opacity:1" fill="#f8f8f8" d="M 2870.5,3316.5 C 2891.25,3314.79 2905.08,3323.79 2912,3343.5C 2913.98,3363.37 2905.82,3377.21 2887.5,3385C 2866.08,3388.57 2851.91,3380.07 2845,3359.5C 2842.57,3344.47 2847.07,3331.97 2858.5,3322C 2862.23,3319.3 2866.23,3317.47 2870.5,3316.5 Z"/></g>
<g><path style="opacity:1" fill="#f3f3f3" d="M 1972.5,3358.5 C 1972.5,3359.5 1972.5,3360.5 1972.5,3361.5C 1963.5,3361.5 1954.5,3361.5 1945.5,3361.5C 1947.71,3343.4 1955.38,3328.4 1968.5,3316.5C 1969.09,3330.58 1970.42,3344.58 1972.5,3358.5 Z"/></g>
<g><path style="opacity:1" fill="#565957" d="M 2016.5,3311.5 C 2017.34,3313.49 2018.01,3315.65 2018.5,3318C 2018.17,3318.5 2017.83,3319 2017.5,3319.5C 2016.52,3316.91 2016.19,3314.25 2016.5,3311.5 Z"/></g>
<g><path style="opacity:1" fill="#c0bfbf" d="M 1972.5,3358.5 C 1973.43,3359.57 1973.77,3360.9 1973.5,3362.5C 1963.99,3362.83 1954.65,3362.49 1945.5,3361.5C 1954.5,3361.5 1963.5,3361.5 1972.5,3361.5C 1972.5,3360.5 1972.5,3359.5 1972.5,3358.5 Z"/></g>
<g><path style="opacity:1" fill="#f6f6f6" d="M 1973.5,3384.5 C 1875.43,3384.83 1777.43,3384.5 1679.5,3383.5C 1678.22,3380.61 1677.22,3377.61 1676.5,3374.5C 1676.57,3373.23 1676.9,3372.06 1677.5,3371C 1776.5,3370.5 1875.5,3370.33 1974.5,3370.5C 1974.82,3375.36 1974.49,3380.03 1973.5,3384.5 Z"/></g>
<g><path style="opacity:1" fill="#414042" d="M 1679.5,3383.5 C 1777.43,3384.5 1875.43,3384.83 1973.5,3384.5C 1924.67,3385.17 1875.67,3385.5 1826.5,3385.5C 1777.16,3385.5 1728.16,3384.83 1679.5,3383.5 Z"/></g>
<g><path style="opacity:1" fill="#dfe0e1" d="M 1669.5,3381.5 C 1670.93,3382.78 1671.6,3384.45 1671.5,3386.5C 1481,3386.83 1290.67,3386.5 1100.5,3385.5C 1290.17,3385.5 1479.83,3385.5 1669.5,3385.5C 1669.5,3384.17 1669.5,3382.83 1669.5,3381.5 Z"/></g>
<g><path style="opacity:1" fill="#757573" d="M 2014.5,3379.5 C 2015.47,3381.61 2015.8,3383.94 2015.5,3386.5C 2005.99,3386.83 1996.65,3386.49 1987.5,3385.5C 1996.5,3385.5 2005.5,3385.5 2014.5,3385.5C 2014.5,3383.5 2014.5,3381.5 2014.5,3379.5 Z"/></g>
<g><path style="opacity:1" fill="#c8c9ca" d="M 2259.5,3383.5 C 2347,3385.17 2434.66,3386.17 2522.5,3386.5C 2434.16,3386.83 2345.83,3386.5 2257.5,3385.5C 2257.86,3384.48 2258.52,3383.81 2259.5,3383.5 Z"/></g>
<g><path style="opacity:1" fill="#adadae" d="M 2580.5,3384.5 C 2669.83,3385.17 2759.17,3385.83 2848.5,3386.5C 2758.5,3386.67 2668.5,3386.5 2578.5,3386C 2579.04,3385.28 2579.71,3384.78 2580.5,3384.5 Z"/></g>
<g><path style="opacity:1" fill="#ced0d1" d="M 2906.5,3383.5 C 3013.66,3385.17 3121,3386.17 3228.5,3386.5C 3164.17,3386.5 3099.83,3386.5 3035.5,3386.5C 2991.83,3386.83 2948.16,3386.5 2904.5,3385.5C 2904.86,3384.48 2905.52,3383.81 2906.5,3383.5 Z"/></g>
<g><path style="opacity:1" fill="#767878" d="M 2201.5,3384.5 C 2202.4,3385.21 2202.74,3386.21 2202.5,3387.5C 2199.94,3387.8 2197.61,3387.47 2195.5,3386.5C 2198.08,3386.97 2200.08,3386.31 2201.5,3384.5 Z"/></g>
<g><path style="opacity:1" fill="#060605" d="M 3302.5,3386.5 C 3313.83,3386.5 3325.17,3386.5 3336.5,3386.5C 3336.78,3389.45 3336.44,3392.28 3335.5,3395C 3324.82,3395.83 3314.15,3395.67 3303.5,3394.5C 3302.61,3391.92 3302.27,3389.25 3302.5,3386.5 Z"/></g>
<g><path style="opacity:1" fill="#080707" d="M 753.5,3386.5 C 773.167,3386.5 792.833,3386.5 812.5,3386.5C 812.5,3389.5 812.5,3392.5 812.5,3395.5C 793.164,3395.67 773.83,3395.5 754.5,3395C 753.556,3392.28 753.223,3389.45 753.5,3386.5 Z"/></g>
<g><path style="opacity:1" fill="#181516" d="M 3035.5,3386.5 C 3099.83,3386.5 3164.17,3386.5 3228.5,3386.5C 3229.48,3389.29 3229.81,3392.29 3229.5,3395.5C 3161.5,3395.5 3093.5,3395.5 3025.5,3395.5C 3093,3394.5 3160.66,3394.17 3228.5,3394.5C 3228.5,3392.17 3228.5,3389.83 3228.5,3387.5C 3164,3387.83 3099.66,3387.5 3035.5,3386.5 Z"/></g>
</svg>
